# xmcd CD database file
#
# Track frame offsets:
#	150
#	23147
#	48330
#
# Disc length: 948 seconds
#
# Revision: 0
# Processed by: cddbd v1.5.1PL0 Copyright (c) Steve Scherf et al.
# Submitted via: CDex 1.51
#
DISCID=1b03b203
DTITLE=崎谷健次郎 - ROOMS
DYEAR=1994
DGENRE=JPop
TTITLE0=ROOMS
TTITLE1=OUR LIVES
TTITLE2=ROOMS (karaoke)
EXTD=YEAR: 1994
EXTT0=
EXTT1=
EXTT2=
PLAYORDER=
